<?xml version="1.0" encoding="utf-8"?>
<!-- Generator: Adobe Illustrator 16.0.0, SVG Export Plug-In . SVG Version: 6.00 Build 0)  -->
<!DOCTYPE svg PUBLIC "-//W3C//DTD SVG 1.1//EN" "http://www.w3.org/Graphics/SVG/1.1/DTD/svg11.dtd">
<svg version="1.1"
	 id="Layer_1" text-rendering="geometricPrecision" image-rendering="optimizeQuality" shape-rendering="geometricPrecision"
	 xmlns="http://www.w3.org/2000/svg" xmlns:xlink="http://www.w3.org/1999/xlink" x="0px" y="0px" width="960px" height="560px"
	 viewBox="0 0 960 560" enable-background="new 0 0 960 560" xml:space="preserve">
<g id="_184535912">
	<g>
		<g>
			<path fill="#FFFFFF" d="M216.078,458.828c-3.172,0-5.688-2.516-5.688-5.688V91.984c0-3.172,2.516-5.688,5.688-5.688h427.328
				c11.703,0,22.859,4.594,31.5,13.016c8.531,8.531,13.016,19.469,13.016,31.5v89.797c0,3.172-2.516,5.688-5.688,5.688
				s-5.688-2.516-5.688-5.688v-89.797c0-8.859-3.391-17.063-9.625-23.297c-6.453-6.234-14.766-9.625-23.297-9.625h-421.75v349.891
				h421.641c8.859,0,17.063-3.391,23.297-9.625c6.344-6.672,9.625-14.766,9.625-23.297v-89.797c0-3.172,2.516-5.688,5.688-5.688
				s5.688,2.516,5.688,5.688v89.359c0,11.703-4.703,23.188-13.016,31.5c-8.422,8.422-19.578,13.016-31.5,13.016H216.078V458.828z"/>
		</g>
	</g>
</g>
<g id="_184535840">
	<g>
		<g>
			<path fill="#FFFFFF" d="M591.563,330.75c-8.203,0-16.188-3.281-22.313-9.188c-5.906-5.906-9.188-13.781-9.188-22.313v-53.156
				c0-8.203,3.281-16.188,9.188-22.313c6.234-6.016,13.891-9.188,22.313-9.188h132.563c8.203,0,16.188,3.281,22.313,9.188
				c5.906,5.688,9.188,13.672,9.188,22.313v53.156c0,8.203-3.281,16.188-9.188,22.313c-5.688,5.906-13.672,9.188-22.313,9.188
				H591.563z M591.563,226.297c-5.141,0-10.281,2.188-13.891,5.797s-5.797,8.859-5.797,13.891v53.156
				c0,5.141,2.188,10.281,5.797,13.891s8.859,5.797,13.891,5.797h132.563c5.141,0,10.281-2.188,13.891-5.797
				s5.797-8.859,5.797-13.891v-53.156c0-5.141-2.188-10.281-5.797-13.891c-3.828-3.828-8.531-5.797-13.781-5.797H591.563z"/>
		</g>
	</g>
</g>
<g id="_184535768">
	<g>
		<g>
			<path fill="#FF00FF" d="M628.641,300.453c-6.781,0-13.453-2.844-17.938-7.547c-4.922-4.922-7.547-11.156-7.547-17.938
				s2.844-13.453,7.547-17.938c4.703-4.922,10.938-7.547,17.938-7.547c6.781,0,13.453,2.844,17.938,7.547
				c4.922,4.922,7.547,11.156,7.547,17.938s-2.844,13.453-7.547,17.938C641.875,297.719,635.313,300.453,628.641,300.453z
				 M628.641,261.078c-3.609,0-7.219,1.531-9.844,4.156c-2.516,2.516-4.156,6.344-4.156,9.844c0,3.609,1.531,7.219,4.156,9.844
				c2.516,2.516,6.344,4.156,9.844,4.156c3.609,0,7.219-1.531,9.844-4.156c2.516-2.516,4.156-6.344,4.156-9.844
				s-1.313-6.891-3.938-9.625l-0.219-0.219C635.859,262.5,632.25,261.078,628.641,261.078z"/>
		</g>
	</g>
</g>
<g id="_184535720">
	<g>
		<g>
			<path fill="#FF00FF" d="M647.016,171.281c-3.172,0-5.688-2.516-5.688-5.688c0-8.859-3.391-17.063-9.625-23.297
				c-6.672-6.344-14.766-9.625-23.297-9.625H479.344c-3.172,0-5.688-2.516-5.688-5.688s2.516-5.688,5.688-5.688h3.5v-0.219h125.344
				c11.922,0,23.078,4.594,31.5,13.016s13.016,19.578,13.016,31.5C652.703,168.766,650.188,171.281,647.016,171.281z"/>
		</g>
	</g>
</g>
</svg>
