<?xml version="1.0" encoding="utf-8"?>
<!-- Generator: Adobe Illustrator 23.1.0, SVG Export Plug-In . SVG Version: 6.00 Build 0)  -->
<svg version="1.1" id="Capa_1" xmlns="http://www.w3.org/2000/svg" xmlns:xlink="http://www.w3.org/1999/xlink" x="0px" y="0px"
	 viewBox="0 0 512 512" style="enable-background:new 0 0 512 512;" xml:space="preserve">
<style type="text/css">
	.st0{fill:#44004E;}
	.st1{fill:#FF00FF;}
</style>
<g>
	<g>
		<g>
			<g>
				<g>
					<g>
						<path class="st0" d="M374.7,41c-0.7,0-1.4-0.1-2-0.4c-33.8-15.5-73.1-23.3-116.8-23.3c-43.7,0-82.9,7.8-116.6,23.3
							c-0.7,0.3-1.4,0.4-2.1,0.4c-2,0-3.8-1.1-4.6-2.9c-1.1-2.5,0-5.6,2.5-6.7C169.8,15.2,210.5,7,255.8,7
							c44.9,0,85.6,8.2,120.9,24.3c1.2,0.5,2.2,1.6,2.7,2.9c0.5,1.3,0.4,2.7-0.2,3.9C378.6,39.7,376.6,41,374.7,41z"/>
					</g>
				</g>
			</g>
		</g>
	</g>
</g>
<g>
	<g>
		<g>
			<g>
				<g>
					<g>
						<path class="st0" d="M422.2,124.8c-1.3,0-2.6-0.5-3.6-1.5c-45-45.6-101.3-69.8-162.8-69.8c-61.2,0-117.5,24.1-162.7,69.8
							c-1,1-2.3,1.5-3.6,1.5c-1.3,0-2.6-0.5-3.6-1.5c-0.9-0.9-1.5-2.2-1.5-3.6c0-1.4,0.5-2.7,1.5-3.6c47-47.6,105.7-72.8,169.9-72.8
							c64.4,0,123.2,25.2,170,72.8c1,1,1.5,2.3,1.5,3.6c0,1.3-0.5,2.6-1.5,3.6C424.7,124.3,423.5,124.8,422.2,124.8z"/>
					</g>
				</g>
			</g>
		</g>
	</g>
</g>
<g>
	<g>
		<g>
			<g>
				<g>
					<g>
						<path class="st0" d="M445.9,280c-2.8,0-5.1-2.3-5.1-5.1c0-102-83-185-185-185c-15.5,0-31,1.9-45.9,5.7
							c-0.4,0.1-0.9,0.1-1.2,0.1c-2.4,0-4.4-1.5-5-3.8c-0.3-1.3-0.1-2.7,0.6-3.9s1.8-2,3.2-2.3c15.6-4,31.9-6,48.4-6
							c107.6,0,195.1,87.5,195.1,195.1c0.1,1.4-0.4,2.7-1.4,3.7C448.6,279.5,447.3,280,445.9,280z"/>
					</g>
				</g>
			</g>
		</g>
	</g>
</g>
<g>
	<g>
		<g>
			<g>
				<g>
					<g>
						<path class="st1" d="M65.7,280c-1.4,0-2.7-0.6-3.5-1.6c-0.9-0.9-1.4-2.1-1.4-3.5c0.8-52.4,20.9-101.1,56.8-137.3
							c11.9-12.1,25.5-22.7,40.4-31.5c0.6-0.3,1.5-0.7,2.6-0.7c1.8,0,3.4,0.9,4.4,2.5c1.4,2.5,0.6,5.6-1.8,7
							c-14,8.2-26.9,18.2-38.3,29.8C90.8,179,71.6,225.3,70.8,275c0,2.7-2.3,5-5,5H65.7z"/>
					</g>
				</g>
			</g>
		</g>
	</g>
</g>
<g>
	<g>
		<g>
			<g>
				<g>
					<g>
						<path class="st0" d="M82.9,375.8c-0.8,0-1.6-0.2-2.5-0.7c-2.5-1.4-3.4-4.4-2-6.9l6.8-12l0.1-0.2c14.8-30.4,23-61.9,23-88.7
							c0-41.3,15.3-79.4,43.1-107.4c27.9-28.2,65-43.7,104.6-43.7c42.6,0,83.2,18.5,111.4,50.7c0.9,1,1.3,2.4,1.2,3.8
							c-0.1,1.4-0.8,2.6-1.8,3.4c-1.3,1.1-2.9,1.2-3.3,1.2c-0.5,0-2.3-0.1-3.8-1.6c-26.2-30.1-64-47.3-103.7-47.3
							c-36.8,0-71.4,14.5-97.4,40.7c-25.8,26-40,61.4-40,99.7c0.1,28.8-8.2,61.4-24.2,94.1l-6.9,12.3
							C86.2,375.1,84.2,375.8,82.9,375.8z"/>
					</g>
				</g>
			</g>
		</g>
	</g>
</g>
<g>
	<g>
		<g>
			<g>
				<g>
					<g>
						<path class="st1" d="M421,409.3c-1.9,0-4.2-1.1-4.9-3.6l-13.5-44.4c-8-36.2-8.7-69.7-9.2-89.7l0-0.7l-0.1-6.8
							c0-15.8-2.6-31.3-7.9-46c-1-2.6,0.4-5.5,3-6.5l0.1,0c0.5-0.1,1-0.3,1.6-0.3c2.1,0,4,1.3,4.7,3.3c5.6,15.7,8.4,32.3,8.4,49.1
							l0.1,6.7l0,0.7c0.4,19.7,1.2,52.7,8.8,87.2l0.1,0.3l13.5,44.1c0.8,2.6-0.6,5.4-3.3,6.4l-0.1,0
							C422,409.2,421.5,409.3,421,409.3z"/>
					</g>
				</g>
			</g>
		</g>
	</g>
</g>
<g>
	<g>
		<g>
			<g>
				<g>
					<g>
						<path class="st0" d="M386.4,453.1c-2.3,0-4.2-1.4-4.9-3.6l-11-35.2c-19.6-61.3-23.9-127.5-24.7-161.4
							c0-49.7-40.4-90.1-90-90.1c-49.6,0-89.9,41.1-89.9,91.7c0.1,18.9-3.6,86.3-55.5,161c-1,1.4-2.5,2.2-4.2,2.2
							c-0.7,0-1.8-0.1-2.9-0.8c-1.2-0.9-1.8-2-2.1-3.3c-0.3-1.5,0-2.8,0.9-3.8c51.6-74.4,53.7-142,53.6-154.7
							c0-56.3,44.9-102.1,100.1-102.1c55.2,0,100.1,44.9,100.1,100.1v0.2c0.7,26.9,4.4,96.3,24.2,158.3l11,35.3
							c0.8,2.6-0.7,5.5-3.3,6.4l-0.1,0H386.4z"/>
					</g>
				</g>
			</g>
		</g>
	</g>
</g>
<g>
	<g>
		<g>
			<g>
				<g>
					<g>
						<path class="st0" d="M208.5,508c-1.1,0-2.2-0.4-3.1-1.1c-1.1-0.8-1.8-2-2-3.4c-0.2-1.4,0.2-2.7,1.1-3.8
							c94.2-122.4,94.1-244.6,93.8-258.1c-0.1-23.5-19.1-42.6-42.4-42.6c-23.4,0-42.4,19-42.4,42.4v0.3c0.3,10.6,0.6,106.1-76.2,206
							c-1,1.2-2.5,2-4,2c-0.4,0-1.8,0-3.1-1.1c-2.2-1.6-2.6-4.8-0.9-7c76.9-100.1,74.2-195.7,74.1-199.7
							c0.1-29.2,23.7-52.9,52.6-52.9c29,0,52.6,23.6,52.6,52.6v0.2c0.3,13.8,0.5,139.1-95.9,264.3C211.5,507.3,210.1,508,208.5,508z
							"/>
					</g>
				</g>
			</g>
		</g>
	</g>
</g>
<g>
	<g>
		<g>
			<g>
				<g>
					<g>
						<path class="st1" d="M251.9,283c-0.3,0-0.7,0-1.1-0.1c-2.6-0.5-4.5-3.1-4-5.8c1.8-11.3,3.9-28.4,3.9-45.7l0-0.7
							c-0.1-1.3,0.4-2.7,1.4-3.7c0.9-1,2.2-1.5,3.5-1.5h0.4c3.1,0,4.8,2.5,4.8,4.9v0.1c0.1,2,0.5,20.2-3.9,48.4
							C256.5,281.2,254.3,283,251.9,283z"/>
					</g>
				</g>
			</g>
		</g>
	</g>
</g>
<g>
	<g>
		<g>
			<g>
				<g>
					<g>
						<path class="st1" d="M165.4,474.4c-1.1,0-2.1-0.3-3.1-1.1c-1.1-0.9-1.8-2.1-2-3.5c-0.2-1.4,0.2-2.7,1.1-3.8
							c34.5-43.2,59.6-90.9,74.6-141.8c0.7-2.1,2.7-3.6,4.9-3.6c0.5,0,0.9,0.1,1.3,0.2l0.2,0.1c1.7,0.5,2.6,1.7,3.1,2.5
							c0.7,1.3,0.9,2.7,0.4,4c-15.6,52.4-41.3,101.3-76.5,145.1C168.1,474.2,166.2,474.4,165.4,474.4z"/>
					</g>
				</g>
			</g>
		</g>
	</g>
</g>
<g>
	<g>
		<g>
			<g>
				<g>
					<g>
						<path class="st1" d="M264.7,496.9c-1,0-2-0.3-2.8-0.8c-2.4-1.5-3-4.7-1.5-7.1c24.1-38,46-85.2,56.9-110
							c0.5-1.2,0.7-1.5,0.7-1.6c0.8-1.9,2.5-3,4.5-3h0.3c2.3,0.1,4.2,1.6,4.7,3.6l0,0.1v0.1l0.1,0.5c4,13.3,7.7,24.9,10.9,34.7
							l14.3,45.5c0.8,2.6-0.7,5.5-3.3,6.4c-0.6,0.1-1.1,0.3-1.5,0.3c-2.3,0-4.2-1.4-4.9-3.6l-14.3-45.4c-0.3-0.9-0.6-1.9-0.9-2.8
							c-0.3-0.9-0.6-1.9-0.9-2.8l-5.3-16.3l-7.3,15.5c-15.9,33.6-31.2,62-45.5,84.5C268.1,496,266.5,496.9,264.7,496.9z"/>
					</g>
				</g>
			</g>
		</g>
	</g>
</g>
</svg>
