<?xml version="1.0" encoding="utf-8"?>
<!-- Generator: Adobe Illustrator 23.1.0, SVG Export Plug-In . SVG Version: 6.00 Build 0)  -->
<svg version="1.1" id="Layer_1" xmlns="http://www.w3.org/2000/svg" xmlns:xlink="http://www.w3.org/1999/xlink" x="0px" y="0px"
	 viewBox="0 0 512 512" style="enable-background:new 0 0 512 512;" xml:space="preserve">
<style type="text/css">
	.st0{fill:#44004E;}
	.st1{fill:#FF00FF;}
</style>
<g>
	<path class="st0" d="M58,502c-4.2,0-7.6-3.4-7.6-7.6v-306c0-4.2,3.4-7.6,7.6-7.6h58.8v-32.2C116.8,71,179.9,8,257.5,8
		s140.7,63,140.7,140.7v32.2H457c2.2,0,4.2,0.8,5.6,2.2c1.4,1.4,2.2,3.4,2,5.3v306c0,4.2-3.4,7.6-7.6,7.6L58,502L58,502z
		 M65.8,486.9h383.6V196.3H65.8V486.9z M257.5,23.4c-68.9,0-125.3,56.3-125.3,125.3v32.2h250.5v-32.2
		C382.7,79.7,326.4,23.4,257.5,23.4z"/>
</g>
<g>
	<path class="st1" d="M257.2,409c-4.2,0-7.6-3.4-7.6-7.6v-32.2l-4.2-1.1c-21-5.6-35.6-24.7-35.6-46.2c0-26.3,21.3-47.6,47.6-47.6
		c12.9,0,24.9,5,33.9,14.3c8.7,9,13.4,20.7,13.2,33.1c0,21.9-14.6,40.9-35.6,46.2l-4.2,1.1v32.5C264.8,405.6,261.4,409,257.2,409z
		 M257.5,289.3c-17.7,0-32.2,14.6-32.2,32.2c0,17.7,14.6,32.2,32.2,32.2c17.9,0,32.2-14.3,32.2-32.2
		C289.7,303.9,275.1,289.3,257.5,289.3z"/>
</g>
</svg>
