<?xml version="1.0" encoding="utf-8"?>
<!-- Generator: Adobe Illustrator 23.1.0, SVG Export Plug-In . SVG Version: 6.00 Build 0)  -->
<svg version="1.1" id="Layer_1" xmlns="http://www.w3.org/2000/svg" xmlns:xlink="http://www.w3.org/1999/xlink" x="0px" y="0px"
	 viewBox="0 0 374 374" style="enable-background:new 0 0 374 374;" xml:space="preserve">
<style type="text/css">
	.st0{fill:#44004E;}
	.st1{fill:#FF00FF;}
</style>
<g>
	<g>
		<g>
			<path class="st0" d="M184.8,366c-0.5,0-1.1,0-1.9-0.3h-0.1l-18.3-8C94.1,326.9,48.6,257.3,48.4,180.4V86.1c0-1.8,0.9-3.4,2.5-4.3
				L182.8,9.6c0.5-0.3,1.4-0.6,2.4-0.6c0.8,0,1.4,0.2,1.8,0.4l0.4,0.2l135.8,72.3c1.7,1,2.6,2.6,2.6,4.3v92.4
				c0,78-46.5,147.9-118.4,178.2l-20.6,8.9C186.2,366,185.5,366,184.8,366z M58.7,180.4c0,72.8,43.2,138.7,110,168l16.3,7.1l18.5-8
				c68.1-28.6,112.2-94.9,112.4-168.9V89.2L185.6,19.6L58.7,89V180.4z"/>
		</g>
	</g>
</g>
<g>
	<g>
		<g>
			<g>
				<g>
					<path class="st1" d="M179.3,240.2c-0.6,0-2.6-0.4-3.7-1.7l-0.1-0.1l-46.3-41.7c-0.9-0.9-2-2.4-2.1-4.1v-0.1v-0.1
						c-0.2-1.2,0.2-2.4,1.2-3.5c1.4-1.1,2.9-2.1,4.7-2.1c1.2,0,2.2,0.4,3,1.3l0.1,0.1l41.9,37.9l63.4-77.1l0.1-0.1
						c1.1-0.9,2.7-1.9,4.5-1.9c1.3,0,2.2,0.4,3,1.3l0.1,0.1l0.1,0.1c1.1,1.1,1.7,2.6,2,4.2c0.2,1.2-0.2,2.5-1.3,3.6l-0.1,0.1
						L182,239l0,0C181.2,239.6,180.2,240.2,179.3,240.2z"/>
				</g>
			</g>
		</g>
	</g>
</g>
</svg>
